<?xml version="1.0" encoding="UTF-8" standalone="no"?>
<svg
   xmlns:dc="http://purl.org/dc/elements/1.1/"
   xmlns:cc="http://creativecommons.org/ns#"
   xmlns:rdf="http://www.w3.org/1999/02/22-rdf-syntax-ns#"
   xmlns:svg="http://www.w3.org/2000/svg"
   xmlns="http://www.w3.org/2000/svg"
   xmlns:sodipodi="http://sodipodi.sourceforge.net/DTD/sodipodi-0.dtd"
   xmlns:inkscape="http://www.inkscape.org/namespaces/inkscape"
   viewBox="2533 -852 187 40"
   version="1.1"
   id="svg20"
   sodipodi:docname="google-login.svg"
   inkscape:version="0.92.1 r15371">
  <metadata
     id="metadata24">
    <rdf:RDF>
      <cc:Work
         rdf:about="">
        <dc:format>image/svg+xml</dc:format>
        <dc:type
           rdf:resource="http://purl.org/dc/dcmitype/StillImage" />
      </cc:Work>
    </rdf:RDF>
  </metadata>
  <sodipodi:namedview
     pagecolor="#ffffff"
     bordercolor="#666666"
     borderopacity="1"
     objecttolerance="10"
     gridtolerance="10"
     guidetolerance="10"
     inkscape:pageopacity="0"
     inkscape:pageshadow="2"
     inkscape:window-width="1366"
     inkscape:window-height="705"
     id="namedview22"
     showgrid="false"
     inkscape:zoom="1.9411765"
     inkscape:cx="93.5"
     inkscape:cy="20"
     inkscape:window-x="-8"
     inkscape:window-y="-8"
     inkscape:window-maximized="1"
     inkscape:current-layer="svg20" />
  <defs
     id="defs4">
    <style
       id="style2">
      .cls-1, .cls-8 {
        fill: none;
      }

      .cls-1 {
        stroke: #707070;
      }

      .cls-2 {
        fill: #707070;
        font-size: 10px;
        font-family: WorkSans-Regular, Work Sans;
        opacity: 0.8;
      }

      .cls-3 {
        fill: #fbbb00;
      }

      .cls-4 {
        fill: #518ef8;
      }

      .cls-5 {
        fill: #28b446;
      }

      .cls-6 {
        fill: #f14336;
      }

      .cls-7 {
        stroke: none;
      }
    </style>
  </defs>
  <g
     id="google-login"
     transform="translate(2441 -1068)">
    <g
       id="Rectangle_3"
       data-name="Rectangle 3"
       class="cls-1"
       transform="translate(92 216)">
      <rect
         class="cls-7"
         width="187"
         height="40"
         id="rect6" />
      <rect
         class="cls-8"
         x="0.5"
         y="0.5"
         width="186"
         height="39"
         id="rect8" />
    </g>
    <text
       id="Sign_in_with_Facebook"
       data-name="Sign in with Facebook"
       class="cls-2"
       transform="translate(160,240)"
       style="font-size:10px;font-family:WorkSans-Regular, 'Work Sans';opacity:0.8;fill:#707070">
      <tspan
         x="0"
         y="0"
         id="tspan11">Sign in with Google</tspan>
    </text>
    <g
       id="search"
       transform="translate(101 222)">
      <path
         id="Path_6"
         data-name="Path 6"
         class="cls-3"
         d="M6.649,148.3l-1.044,3.9-3.817.081a15.026,15.026,0,0,1-.11-14.007h0l3.4.623,1.489,3.378a8.952,8.952,0,0,0,.084,6.027Z"
         transform="translate(0 -130.166)" />
      <path
         id="Path_7"
         data-name="Path 7"
         class="cls-4"
         d="M276.036,208.176a14.994,14.994,0,0,1-5.347,14.5h0l-4.28-.218-.606-3.781a8.94,8.94,0,0,0,3.846-4.565h-8.021v-5.934h14.408Z"
         transform="translate(-246.298 -195.978)" />
      <path
         id="Path_8"
         data-name="Path 8"
         class="cls-5"
         d="M53.111,317.976h0a15,15,0,0,1-22.6-4.589l4.861-3.979a8.921,8.921,0,0,0,12.855,4.568Z"
         transform="translate(-28.721 -291.28)" />
      <path
         id="Path_9"
         data-name="Path 9"
         class="cls-6"
         d="M51.521,3.453,46.662,7.432A8.92,8.92,0,0,0,33.511,12.1l-4.887-4h0a15,15,0,0,1,22.9-4.648Z"
         transform="translate(-26.947)" />
    </g>
  </g>
</svg>
