<svg class="lds-gear" width="200px" height="200px" xmlns="http://www.w3.org/2000/svg" xmlns:xlink="http://www.w3.org/1999/xlink" viewBox="0 0 100 100" preserveAspectRatio="xMidYMid" style="animation-play-state: running; animation-delay: 0s; background: rgba(0, 0, 0, 0) none repeat scroll 0% 0%;"><g transform="translate(50 50)" style="animation-play-state: running; animation-delay: 0s;">
<g style="animation-play-state: running; animation-delay: 0s;">
<animateTransform attributeName="transform" type="rotate" values="0;360" keyTimes="0;1" dur="4.1s" repeatCount="indefinite" style="animation-play-state: running; animation-delay: 0s;"></animateTransform><path d="M37.25251669350676 -7.5 L47.25251669350676 -7.5 L47.25251669350676 7.5 L37.25251669350676 7.5 A38 38 0 0 1 34.546308480476945 15.828852465410332 L34.546308480476945 15.828852465410332 L42.63647842422642 21.706704988335062 L33.81969963983932 33.84195990395928 L25.72952969608985 27.964107381034545 A38 38 0 0 1 18.644584613743664 33.11162129194149 L18.644584613743664 33.11162129194149 L21.73475455749314 42.622186454893026 L7.468906813065843 47.257441370517235 L4.378736869316368 37.7468762075657 A38 38 0 0 1 -4.378736869316364 37.7468762075657 L-4.378736869316364 37.7468762075657 L-7.468906813065837 47.257441370517235 L-21.734754557493133 42.622186454893026 L-18.64458461374366 33.11162129194149 A38 38 0 0 1 -25.72952969608985 27.964107381034545 L-25.72952969608985 27.964107381034545 L-33.81969963983932 33.84195990395928 L-42.63647842422642 21.706704988335073 L-34.546308480476945 15.82885246541034 A38 38 0 0 1 -37.25251669350676 7.5 L-37.25251669350676 7.5 L-47.25251669350676 7.500000000000001 L-47.25251669350676 -7.499999999999991 L-37.25251669350676 -7.499999999999992 A38 38 0 0 1 -34.546308480476945 -15.828852465410332 L-34.546308480476945 -15.828852465410332 L-42.63647842422642 -21.706704988335062 L-33.81969963983933 -33.84195990395927 L-25.729529696089852 -27.96410738103454 A38 38 0 0 1 -18.64458461374368 -33.11162129194148 L-18.64458461374368 -33.11162129194148 L-21.734754557493158 -42.62218645489302 L-7.468906813065832 -47.257441370517235 L-4.378736869316356 -37.7468762075657 A38 38 0 0 1 4.378736869316342 -37.7468762075657 L4.378736869316342 -37.7468762075657 L7.468906813065814 -47.257441370517235 L21.734754557493144 -42.622186454893026 L18.64458461374367 -33.11162129194149 A38 38 0 0 1 25.72952969608983 -27.964107381034562 L25.72952969608983 -27.964107381034562 L33.8196996398393 -33.84195990395929 L42.63647842422642 -21.706704988335062 L34.546308480476945 -15.82885246541033 A38 38 0 0 1 37.252516693506756 -7.500000000000021 M0 -10A10 10 0 1 0 0 10 A10 10 0 1 0 0 -10" fill="#fe3d3e" style="animation-play-state: running; animation-delay: 0s;"></path></g></g></svg>