<svg id="Layer_1" data-name="Layer 1" xmlns="http://www.w3.org/2000/svg" viewBox="0 0 400 130.4"><defs><style>.cls-1{fill:#fe3e3f;}</style></defs><title>Full - Red</title><path class="cls-1" d="M71.8,33A6.9,6.9,0,0,1,79,26.2c4.1,0,7.3,2.9,7.3,6.8a7.26,7.26,0,0,1-14.5,0ZM85.2,80.6c0,7.6.2,13.1.4,15.1a58.73,58.73,0,0,1-12.5.4c-.1-1.6-.3-6.9-.3-15.5V51c3.6-1.7,8.1-2.3,12.3-3.5l.1,33.1Z"/><path class="cls-1" d="M129.9,83.3c.3,2.8-.3,6.2-1.2,10a19.41,19.41,0,0,1-12,3.9c-7.3,0-14.9-3.8-14.9-15.4V58.9H94.5c.4-3.2,1.3-6.4,1.3-9.6l7-1.2,1.4-9.3c3-1.4,6.6-1.9,10-2.8V49.4h14.9c0,3.1-.8,6.4-1.3,9.6H114.1V78.7c0,5.9,3.2,7.7,6.8,7.7a16.7,16.7,0,0,0,9-3.1Z"/><path class="cls-1" d="M178.3,95.7a20.71,20.71,0,0,1-5,.3c-.1-1.2-.2-5.7-.2-13.4V66.4c0-7.6-3.7-11.9-9.8-11.9-8.7,0-16.7,8.5-16.7,21v7.3c0,6.7.1,11.4.2,13.1a27.16,27.16,0,0,1-4.9.2c0-1.6-.1-6.3-.1-13.3V24.3a33.63,33.63,0,0,1,4.8-1.4V63.8c2.8-8.8,9.7-14.1,17.8-14.1,8.7,0,13.5,5.8,13.5,15.8V82.6C178,89.9,178.1,94.4,178.3,95.7Z"/><path class="cls-1" d="M228.1,87.2a16.24,16.24,0,0,1-.4,4.7,23.72,23.72,0,0,1-14.7,5c-12.4,0-21-9.6-21-23.1s8.6-24,21.5-24c9.6,0,15.2,5.7,15.2,15.1a27.14,27.14,0,0,1-1.2,7.8l-30.5.4v.2c0,11.1,7.1,19.1,17.1,19.1A21.41,21.41,0,0,0,228.1,87.2ZM197.4,69.3l26-.5a18.6,18.6,0,0,0,.6-4.5c0-6.3-4-10.1-10.7-10.1C204.3,54.1,198.7,60.9,197.4,69.3Z"/><path class="cls-1" d="M247.4,95.8a27.16,27.16,0,0,1-4.9.2c0-1.6-.1-6.3-.1-13.3V24.3a33.63,33.63,0,0,1,4.8-1.4V82.6C247.3,89.4,247.4,94.1,247.4,95.8Z"/><path class="cls-1" d="M305.9,70.5c0,15.3-10.7,26.4-25.5,26.4a31.31,31.31,0,0,1-8.6-1.2v6.2c0,7.2.2,11.7.3,13.2a20.71,20.71,0,0,1-5,.3c-.1-1.3-.2-5.8-.2-13.5V67.7a100,100,0,0,0-1.3-16.2,23.17,23.17,0,0,1,4.2-1.2,67.71,67.71,0,0,1,1.8,13.5c2.7-8.3,9.5-13.9,17.5-13.9C299.3,49.9,305.9,58.5,305.9,70.5Zm-4.9.7c0-9.8-5.1-16.8-12.8-16.8-8.6,0-16.4,8.5-16.4,21.1V90.6a23.2,23.2,0,0,0,9.4,2.1C292.7,92.5,301,83.7,301,71.2Z"/><path class="cls-1" d="M352.2,87.2a16.24,16.24,0,0,1-.4,4.7,23.72,23.72,0,0,1-14.7,5c-12.4,0-21-9.6-21-23.1s8.6-24,21.5-24c9.6,0,15.2,5.7,15.2,15.1a27.14,27.14,0,0,1-1.2,7.8l-30.5.4v.2c0,11.1,7.1,19.1,17.1,19.1A21.87,21.87,0,0,0,352.2,87.2ZM321.4,69.3l26-.5a18.6,18.6,0,0,0,.6-4.5c0-6.3-4-10.1-10.7-10.1C328.3,54.1,322.8,60.9,321.4,69.3Z"/><path class="cls-1" d="M388.3,56c-9.6-1.3-16.9,8.1-16.9,21.7v4.9c0,6.7.1,11.4.2,13.1a27.16,27.16,0,0,1-4.9.2c0-1.6-.1-6.3-.1-13.3v-15a100,100,0,0,0-1.3-16.2,23.17,23.17,0,0,1,4.2-1.2,84.19,84.19,0,0,1,1.9,14.4c2.9-9.4,10.2-14.8,18.2-14.8A16.43,16.43,0,0,1,388.3,56Z"/><path class="cls-1" d="M44.1,47.7A15.82,15.82,0,0,0,28.9,58.2V22.3c-4.2,1.2-8.7,1.8-12.3,3.5V94a47.2,47.2,0,0,0,16.5,3.1c17.7,0,29-11.4,29-27.4C62.1,56.9,54.9,47.6,44.1,47.7Zm11.1,26a2.56,2.56,0,0,1-1.1.8c-.3.2-.9.5-1.6.9a26.91,26.91,0,0,0-7.9,6.1c-6.2,7.8-9.9,6.2-13.9,3.8s-5.7-6-6.8-9.3L20.2,64a1.58,1.58,0,0,1,1.1-2,1.53,1.53,0,0,1,1.3.2,1.21,1.21,0,0,1,.5.5c.1.1.6.9,1.9,3,.7,1,2.1,3.2,3.4,3.9a1.33,1.33,0,0,0,.8.3c2,.1,3.1-3.3,4.7-8.8l2-7.1a1.59,1.59,0,0,1,.8-1,1.91,1.91,0,0,1,1.3-.2.52.52,0,0,1,.4.2,1.7,1.7,0,0,1,.6.6,1.91,1.91,0,0,1,.2,1.3L37.1,64c-.3,1.6-.3,2.3.2,2.6a.1.1,0,0,1,.1.1c.6.2,1-.2,1.6-1.1l5.9-9.4a1.68,1.68,0,1,1,2.9,1.7L42.5,67c-.5.9-1,1.9-.4,2.5l.1.1c.8.5,1.8-.7,2.3-1.1l6-6.4a2.28,2.28,0,0,1,1.2-.6,3,3,0,0,1,1,.2c.1.1.2.1.2.2a2.28,2.28,0,0,1,.6,1.2,1.59,1.59,0,0,1-.4,1.2l-6.5,8a1.24,1.24,0,0,0-.2,1.5c.1.1.2.2.3.2a1.07,1.07,0,0,0,1.1,0l5.5-2.2a2.05,2.05,0,0,1,1.1,0c.1,0,.1.1.2.1a1.34,1.34,0,0,1,.6.7A2.05,2.05,0,0,1,55.2,73.7Z"/></svg>