<?xml version="1.0" encoding="utf-8"?>
<!-- Generator: Adobe Illustrator 22.0.1, SVG Export Plug-In . SVG Version: 6.00 Build 0)  -->
<svg version="1.1" id="Layer_1" xmlns="http://www.w3.org/2000/svg" xmlns:xlink="http://www.w3.org/1999/xlink" x="0px" y="0px"
	 viewBox="0 0 400 130.4" style="enable-background:new 0 0 400 130.4;" xml:space="preserve">
<style type="text/css">
	.st0{fill:#FE3E3F;}
	.st1{fill:#FFFFFF;}
</style>
<rect x="-574.8" y="12.3" class="st0" width="41.6" height="41.6"/>
<g>
	<path class="st0" d="M-369.9,69.7c0,16-11.3,27.4-29,27.4c-7,0-13.2-1.8-16.5-3.1v0l0,0l0-65.5v-2.7c3.6-1.7,8.1-2.3,12.3-3.5v6.2
		l0,29.7c2.5-6.4,8-10.5,15.2-10.5C-377.1,47.6-369.9,56.9-369.9,69.7z"/>
	<path class="st0" d="M-360.2,33c0-3.9,3.2-6.8,7.2-6.8c4.1,0,7.3,2.9,7.3,6.8c0,3.9-3.2,6.9-7.3,6.9C-357,39.9-360.2,36.9-360.2,33
		z M-346.7,80.6c0,7.6,0.2,13.1,0.4,15.1c-4.4,0.6-8.4,0.7-12.5,0.4c-0.1-1.6-0.3-6.9-0.3-15.5V51c3.6-1.7,8.1-2.3,12.3-3.5
		L-346.7,80.6L-346.7,80.6z"/>
	<path class="st0" d="M-302,83.3c0.3,2.8-0.3,6.2-1.2,10c-2,1.7-6.4,3.9-12,3.9c-7.3,0-14.9-3.8-14.9-15.4V58.9h-7.3
		c0.4-3.2,1.3-6.4,1.3-9.6l7-1.2l1.4-9.3c3-1.4,6.6-1.9,10-2.8v13.4h14.9c0,3.1-0.8,6.4-1.3,9.6h-13.7v19.7c0,5.9,3.2,7.7,6.8,7.7
		C-307.3,86.3-303.8,84.6-302,83.3L-302,83.3z"/>
	<path class="st0" d="M-253.7,95.7c-1.6,0.3-3.3,0.4-5,0.3c-0.1-1.2-0.2-5.7-0.2-13.4V66.4c0-7.6-3.7-11.9-9.8-11.9
		c-8.7,0-16.7,8.5-16.7,21v7.3c0,6.7,0.1,11.4,0.2,13.1c-1.7,0.2-3.3,0.3-4.9,0.2c0-1.6-0.1-6.3-0.1-13.3V24.3
		c1.4-0.7,3.2-0.9,4.8-1.4v40.9c2.8-8.8,9.7-14.1,17.8-14.1c8.7,0,13.5,5.8,13.5,15.8v17.1C-254,89.9-253.8,94.4-253.7,95.7z"/>
	<path class="st0" d="M-203.9,87.2c0.2,1.3-0.1,2.9-0.4,4.7c-2.4,2-7.7,5-14.7,5c-12.4,0-21-9.6-21-23.1c0-13.5,8.6-24,21.5-24
		c9.6,0,15.2,5.7,15.2,15.1c0,2.7-0.5,5.6-1.2,7.8l-30.5,0.4v0.2c0,11.1,7.1,19.1,17.1,19.1C-211.6,92.4-206.3,89.5-203.9,87.2z
		 M-234.6,69.3l26-0.5c0.4-1.6,0.6-3.1,0.6-4.5c0-6.3-4-10.1-10.7-10.1C-227.7,54.1-233.2,60.9-234.6,69.3z"/>
	<path class="st0" d="M-184.5,95.8c-1.7,0.2-3.3,0.3-4.9,0.2c0-1.6-0.1-6.3-0.1-13.3V24.3c1.4-0.7,3.2-0.9,4.8-1.4v59.7
		C-184.7,89.4-184.6,94.1-184.5,95.8z"/>
	<path class="st0" d="M-126,70.5c0,15.3-10.7,26.4-25.5,26.4c-3.2,0-6.2-0.5-8.6-1.2v6.2c0,7.2,0.2,11.7,0.3,13.2
		c-1.6,0.3-3.3,0.4-5,0.3c-0.1-1.3-0.2-5.8-0.2-13.5V67.7c0-6-0.6-12.4-1.3-16.2c1.3-0.5,2.6-0.9,4.2-1.2c0.7,2.7,1.6,7.8,1.8,13.5
		c2.7-8.3,9.5-13.9,17.5-13.9C-132.7,49.9-126,58.5-126,70.5z M-131,71.2c0-9.8-5.1-16.8-12.8-16.8c-8.6,0-16.4,8.5-16.4,21.1v15.1
		c2.6,1.2,6,2.1,9.4,2.1C-139.3,92.5-131,83.7-131,71.2z"/>
	<path class="st0" d="M-79.8,87.2c0.2,1.3-0.1,2.9-0.4,4.7c-2.4,2-7.7,5-14.7,5c-12.4,0-21-9.6-21-23.1c0-13.5,8.6-24,21.5-24
		c9.6,0,15.2,5.7,15.2,15.1c0,2.7-0.5,5.6-1.2,7.8l-30.5,0.4v0.2c0,11.1,7.1,19.1,17.1,19.1C-87.5,92.4-82.3,89.5-79.8,87.2z
		 M-110.6,69.3l26-0.5c0.4-1.6,0.6-3.1,0.6-4.5c0-6.3-4-10.1-10.7-10.1C-103.6,54.1-109.2,60.9-110.6,69.3z"/>
	<path class="st0" d="M-43.6,56c-9.6-1.3-16.9,8.1-16.9,21.7v4.9c0,6.7,0.1,11.4,0.2,13.1c-1.7,0.2-3.3,0.3-4.9,0.2
		c0-1.6-0.1-6.3-0.1-13.3v-15c0-6-0.6-12.4-1.3-16.2c1.3-0.5,2.6-0.9,4.2-1.2c0.7,2.9,1.6,8.3,1.9,14.4c2.9-9.4,10.2-14.8,18.2-14.8
		C-42.4,51.7-42.8,53.8-43.6,56z"/>
</g>
<g>
	<path class="st0" d="M62.1,231.7c0,16-11.3,27.4-29,27.4c-7,0-13.2-1.8-16.5-3.1v0l0,0l0-65.5v-2.7c3.6-1.7,8.1-2.3,12.3-3.5v6.2
		l0,29.7c2.5-6.4,8-10.5,15.2-10.5C54.9,209.6,62.1,218.9,62.1,231.7z"/>
	<path class="st0" d="M71.8,195c0-3.9,3.2-6.8,7.2-6.8c4.1,0,7.3,2.9,7.3,6.8c0,3.9-3.2,6.9-7.3,6.9C75,201.9,71.8,198.9,71.8,195z
		 M85.2,242.6c0,7.6,0.2,13.1,0.4,15.1c-4.4,0.6-8.4,0.7-12.5,0.4c-0.1-1.6-0.3-6.9-0.3-15.5V213c3.6-1.7,8.1-2.3,12.3-3.5
		L85.2,242.6L85.2,242.6z"/>
	<path class="st0" d="M129.9,245.3c0.3,2.8-0.3,6.2-1.2,10c-2,1.7-6.4,3.9-12,3.9c-7.3,0-14.9-3.8-14.9-15.4v-22.9h-7.3
		c0.4-3.2,1.3-6.4,1.3-9.6l7-1.2l1.4-9.3c3-1.4,6.6-1.9,10-2.8v13.4h14.9c0,3.1-0.8,6.4-1.3,9.6h-13.7v19.7c0,5.9,3.2,7.7,6.8,7.7
		C124.7,248.3,128.2,246.6,129.9,245.3L129.9,245.3z"/>
	<path class="st0" d="M178.3,257.7c-1.6,0.3-3.3,0.4-5,0.3c-0.1-1.2-0.2-5.7-0.2-13.4v-16.3c0-7.6-3.7-11.9-9.8-11.9
		c-8.7,0-16.7,8.5-16.7,21v7.3c0,6.7,0.1,11.4,0.2,13.1c-1.7,0.2-3.3,0.3-4.9,0.2c0-1.6-0.1-6.3-0.1-13.3v-58.4
		c1.4-0.7,3.2-0.9,4.8-1.4v40.9c2.8-8.8,9.7-14.1,17.8-14.1c8.7,0,13.5,5.8,13.5,15.8v17.1C178,251.9,178.1,256.4,178.3,257.7z"/>
	<path class="st0" d="M228.1,249.2c0.2,1.3-0.1,2.9-0.4,4.7c-2.4,2-7.7,5-14.7,5c-12.4,0-21-9.6-21-23.1c0-13.5,8.6-24,21.5-24
		c9.6,0,15.2,5.7,15.2,15.1c0,2.7-0.5,5.6-1.2,7.8l-30.5,0.4v0.2c0,11.1,7.1,19.1,17.1,19.1C220.4,254.4,225.7,251.5,228.1,249.2z
		 M197.4,231.3l26-0.5c0.4-1.6,0.6-3.1,0.6-4.5c0-6.3-4-10.1-10.7-10.1C204.3,216.1,198.7,222.9,197.4,231.3z"/>
	<path class="st0" d="M247.4,257.8c-1.7,0.2-3.3,0.3-4.9,0.2c0-1.6-0.1-6.3-0.1-13.3v-58.4c1.4-0.7,3.2-0.9,4.8-1.4v59.7
		C247.3,251.4,247.4,256.1,247.4,257.8z"/>
	<path class="st0" d="M305.9,232.5c0,15.3-10.7,26.4-25.5,26.4c-3.2,0-6.2-0.5-8.6-1.2v6.2c0,7.2,0.2,11.7,0.3,13.2
		c-1.6,0.3-3.3,0.4-5,0.3c-0.1-1.3-0.2-5.8-0.2-13.5v-34.3c0-6-0.6-12.4-1.3-16.2c1.3-0.5,2.6-0.9,4.2-1.2c0.7,2.7,1.6,7.8,1.8,13.5
		c2.7-8.3,9.5-13.9,17.5-13.9C299.3,211.9,305.9,220.5,305.9,232.5z M301,233.2c0-9.8-5.1-16.8-12.8-16.8c-8.6,0-16.4,8.5-16.4,21.1
		v15.1c2.6,1.2,6,2.1,9.4,2.1C292.7,254.5,301,245.7,301,233.2z"/>
	<path class="st0" d="M352.2,249.2c0.2,1.3-0.1,2.9-0.4,4.7c-2.4,2-7.7,5-14.7,5c-12.4,0-21-9.6-21-23.1c0-13.5,8.6-24,21.5-24
		c9.6,0,15.2,5.7,15.2,15.1c0,2.7-0.5,5.6-1.2,7.8l-30.5,0.4v0.2c0,11.1,7.1,19.1,17.1,19.1C344.4,254.4,349.7,251.5,352.2,249.2z
		 M321.4,231.3l26-0.5c0.4-1.6,0.6-3.1,0.6-4.5c0-6.3-4-10.1-10.7-10.1C328.3,216.1,322.8,222.9,321.4,231.3z"/>
	<path class="st0" d="M388.3,218c-9.6-1.3-16.9,8.1-16.9,21.7v4.9c0,6.7,0.1,11.4,0.2,13.1c-1.7,0.2-3.3,0.3-4.9,0.2
		c0-1.6-0.1-6.3-0.1-13.3v-15c0-6-0.6-12.4-1.3-16.2c1.3-0.5,2.6-0.9,4.2-1.2c0.7,2.9,1.6,8.3,1.9,14.4c2.9-9.4,10.2-14.8,18.2-14.8
		C389.6,213.7,389.2,215.8,388.3,218z"/>
</g>
<g>
	<path class="st0" d="M62.1,69.7c0,16-11.3,27.4-29,27.4c-7,0-13.2-1.8-16.5-3.1v0l0,0l0-65.5v-2.7c3.6-1.7,8.1-2.3,12.3-3.5v6.2
		l0,29.7c2.5-6.4,8-10.5,15.2-10.5C54.9,47.6,62.1,56.9,62.1,69.7z"/>
	<path class="st0" d="M71.8,33c0-3.9,3.2-6.8,7.2-6.8c4.1,0,7.3,2.9,7.3,6.8c0,3.9-3.2,6.9-7.3,6.9C75,39.9,71.8,36.9,71.8,33z
		 M85.2,80.6c0,7.6,0.2,13.1,0.4,15.1c-4.4,0.6-8.4,0.7-12.5,0.4c-0.1-1.6-0.3-6.9-0.3-15.5V51c3.6-1.7,8.1-2.3,12.3-3.5L85.2,80.6
		L85.2,80.6z"/>
	<path class="st0" d="M129.9,83.3c0.3,2.8-0.3,6.2-1.2,10c-2,1.7-6.4,3.9-12,3.9c-7.3,0-14.9-3.8-14.9-15.4V58.9h-7.3
		c0.4-3.2,1.3-6.4,1.3-9.6l7-1.2l1.4-9.3c3-1.4,6.6-1.9,10-2.8v13.4h14.9c0,3.1-0.8,6.4-1.3,9.6h-13.7v19.7c0,5.9,3.2,7.7,6.8,7.7
		C124.7,86.3,128.2,84.6,129.9,83.3L129.9,83.3z"/>
	<path class="st0" d="M178.3,95.7c-1.6,0.3-3.3,0.4-5,0.3c-0.1-1.2-0.2-5.7-0.2-13.4V66.4c0-7.6-3.7-11.9-9.8-11.9
		c-8.7,0-16.7,8.5-16.7,21v7.3c0,6.7,0.1,11.4,0.2,13.1c-1.7,0.2-3.3,0.3-4.9,0.2c0-1.6-0.1-6.3-0.1-13.3V24.3
		c1.4-0.7,3.2-0.9,4.8-1.4v40.9c2.8-8.8,9.7-14.1,17.8-14.1c8.7,0,13.5,5.8,13.5,15.8v17.1C178,89.9,178.1,94.4,178.3,95.7z"/>
	<path class="st0" d="M228.1,87.2c0.2,1.3-0.1,2.9-0.4,4.7c-2.4,2-7.7,5-14.7,5c-12.4,0-21-9.6-21-23.1c0-13.5,8.6-24,21.5-24
		c9.6,0,15.2,5.7,15.2,15.1c0,2.7-0.5,5.6-1.2,7.8l-30.5,0.4v0.2c0,11.1,7.1,19.1,17.1,19.1C220.4,92.4,225.7,89.5,228.1,87.2z
		 M197.4,69.3l26-0.5c0.4-1.6,0.6-3.1,0.6-4.5c0-6.3-4-10.1-10.7-10.1C204.3,54.1,198.7,60.9,197.4,69.3z"/>
	<path class="st0" d="M247.4,95.8c-1.7,0.2-3.3,0.3-4.9,0.2c0-1.6-0.1-6.3-0.1-13.3V24.3c1.4-0.7,3.2-0.9,4.8-1.4v59.7
		C247.3,89.4,247.4,94.1,247.4,95.8z"/>
	<path class="st0" d="M305.9,70.5c0,15.3-10.7,26.4-25.5,26.4c-3.2,0-6.2-0.5-8.6-1.2v6.2c0,7.2,0.2,11.7,0.3,13.2
		c-1.6,0.3-3.3,0.4-5,0.3c-0.1-1.3-0.2-5.8-0.2-13.5V67.7c0-6-0.6-12.4-1.3-16.2c1.3-0.5,2.6-0.9,4.2-1.2c0.7,2.7,1.6,7.8,1.8,13.5
		c2.7-8.3,9.5-13.9,17.5-13.9C299.3,49.9,305.9,58.5,305.9,70.5z M301,71.2c0-9.8-5.1-16.8-12.8-16.8c-8.6,0-16.4,8.5-16.4,21.1
		v15.1c2.6,1.2,6,2.1,9.4,2.1C292.7,92.5,301,83.7,301,71.2z"/>
	<path class="st0" d="M352.2,87.2c0.2,1.3-0.1,2.9-0.4,4.7c-2.4,2-7.7,5-14.7,5c-12.4,0-21-9.6-21-23.1c0-13.5,8.6-24,21.5-24
		c9.6,0,15.2,5.7,15.2,15.1c0,2.7-0.5,5.6-1.2,7.8l-30.5,0.4v0.2c0,11.1,7.1,19.1,17.1,19.1C344.4,92.4,349.7,89.5,352.2,87.2z
		 M321.4,69.3l26-0.5c0.4-1.6,0.6-3.1,0.6-4.5c0-6.3-4-10.1-10.7-10.1C328.3,54.1,322.8,60.9,321.4,69.3z"/>
	<path class="st0" d="M388.3,56c-9.6-1.3-16.9,8.1-16.9,21.7v4.9c0,6.7,0.1,11.4,0.2,13.1c-1.7,0.2-3.3,0.3-4.9,0.2
		c0-1.6-0.1-6.3-0.1-13.3v-15c0-6-0.6-12.4-1.3-16.2c1.3-0.5,2.6-0.9,4.2-1.2c0.7,2.9,1.6,8.3,1.9,14.4c2.9-9.4,10.2-14.8,18.2-14.8
		C389.6,51.7,389.2,53.8,388.3,56z"/>
</g>
<g>
	<path class="st1" d="M54.1,74.5L54.1,74.5L54.1,74.5c-0.3,0.2-0.9,0.5-1.6,0.9c-2.7,1.4-6.2,3.9-7.9,6.1c-6.2,7.8-9.9,6.2-13.9,3.8
		c-4.1-2.5-5.7-6-6.8-9.3L20.2,64c-0.3-0.8,0.2-1.7,1.1-2c0.4-0.1,0.9-0.1,1.3,0.2c0.2,0.1,0.4,0.3,0.5,0.5l0,0
		c0.1,0.1,0.6,0.9,1.9,3c0.7,1,2.1,3.2,3.4,3.9c0.3,0.2,0.5,0.3,0.8,0.3c2,0.1,3.1-3.3,4.7-8.8l2-7.1c0.1-0.4,0.4-0.8,0.8-1
		c0.4-0.2,0.8-0.3,1.3-0.2c0.2,0,0.3,0.1,0.4,0.2c0.2,0.1,0.4,0.3,0.6,0.6c0.2,0.4,0.3,0.8,0.2,1.3L37.1,64
		c-0.3,1.6-0.3,2.3,0.2,2.6c0,0,0.1,0,0.1,0.1c0.6,0.2,1-0.2,1.6-1.1l5.9-9.4c0.5-0.8,1.5-1.1,2.3-0.6c0.8,0.5,1.1,1.5,0.6,2.3
		L42.5,67c-0.5,0.9-1,1.9-0.4,2.5c0,0,0.1,0.1,0.1,0.1c0.8,0.5,1.8-0.7,2.3-1.1l6-6.4c0.3-0.3,0.7-0.5,1.2-0.6c0.4,0,0.7,0.1,1,0.2
		c0.1,0.1,0.2,0.1,0.2,0.2c0.3,0.3,0.5,0.7,0.6,1.2c0,0.5-0.1,0.9-0.4,1.2l-6.5,8c-0.4,0.5-0.5,1.1-0.2,1.5c0.1,0.1,0.2,0.2,0.3,0.2
		c0.3,0.2,0.6,0.2,1.1,0l5.5-2.2c0.4-0.1,0.7-0.1,1.1,0c0.1,0,0.1,0.1,0.2,0.1c0.3,0.2,0.5,0.4,0.6,0.7c0.1,0.4,0.1,0.7,0,1.1
		C54.8,74.1,54.5,74.4,54.1,74.5z"/>
</g>
<g>
	<path class="st1" d="M-390.2,80.2c2.4-1,4.8-2.1,7.2-3.1c2.6-1.1,5.1-2.2,7.7-3.3c1.1-0.5,1.6-1.6,1.1-2.7
		c-0.4-1.1-1.6-1.6-2.7-1.1c-2.4,1-4.7,1.9-7.1,3c-2.4,1-4.8,2.1-7.3,3c-0.1,0.1-0.3-0.1-0.4-0.1c-0.1-0.1-0.2-0.2-0.3-0.4
		c0.2-0.1,0.3-0.2,0.4-0.3c4.8-3.1,9.6-6.4,14.4-9.5c1-0.7,1.3-1.9,0.7-2.8c-0.7-1-1.9-1.2-2.9-0.5c-4.8,3.2-9.6,6.4-14.3,9.6
		c-0.1,0.1-0.3,0.2-0.5,0.3c-0.2-0.2-0.3-0.4-0.4-0.7c0.7-0.6,1.3-1.3,1.9-1.9c2.9-2.8,5.8-5.7,8.7-8.6c0.2-0.2,0.5-0.4,0.7-0.7
		c0.8-0.8,0.8-2.1,0-2.8c-0.8-0.8-2-0.8-2.8-0.1c-2.9,2.5-5.8,5.1-8.6,7.7c-2.4,2.1-4.8,4.3-7.3,6.4c-0.5-0.4-0.5-0.5-0.2-1.1
		c1.4-2.4,2.8-4.7,4.2-7c0.8-1.3,0.3-2.8-1.5-3.3c-0.7-0.2-1.2,0.2-1.6,0.7c-1,1.3-2,2.7-3,4.1c-1.7,2.3-3.3,4.5-5,6.9
		c-0.9,1.3-1.6,2.7-2,4.2c-0.7,2.3-0.5,4.5,0.4,6.7c1.2,2.7,3,4.8,5.7,6.1c3,1.5,6.2,1.6,9.3,0.2c0.4-0.2,0.9-0.5,1.3-0.7
		c0.5-0.3,1-0.7,1.5-1c1.6-1.2,3.3-1.9,5.3-2.4c2.7-0.7,5.3-1.5,8-2.2c0.5-0.2,1.1-0.5,1.5-0.8c0.6-0.5,0.7-1.5,0.3-2.1
		c-0.4-0.8-1.3-1.3-2.2-1c-1.3,0.3-2.7,0.6-4,0.9c-1.8,0.4-3.6,0.8-5.4,1.3C-389.8,80.9-389.8,80.9-390.2,80.2z"/>
</g>
<g>
	<g transform="matrix(0.02870387,0,0,0.02870387,-83.894895,102.76536)">
		<g transform="matrix(-1,0,0,1,1010.0388,-3547.0452)">
			<path class="st1" d="M-3477.5,7431.2c-42.3-3.2-81.4,26.8-87.4,67.1c-2.6,17.8,1.6,35.4,12,49.7l287,390.9l-30.7,19.7
				l-433.8-305.2l-1.3-0.9c-33.4-23.2-82-15.2-108.6,17.9c-25.9,32.3-21.4,76.7,10.3,100.4l424.3,313.2l-9.8,29.9l-449.2-161.7
				c-39.1-13.9-84.7,5.5-101.9,43.4c-16.6,36.8-0.5,77.7,36.7,92.8l477.2,192.5l-3.3,41l-404.4,71.5c-42.3,7.6-72.2,45.9-66.7,85.6
				c5.2,37.6,40.5,63.3,80.9,58.9l446.6-50.2l360.7,147.4l62.3,97.1c19.4,30.3,60.3,41,95.9,25.3l293.6-129.9
				c35.6-15.8,55.2-53.3,45.8-87.9l-109-404.8l3.7-212c0-3-0.1-6-0.4-9l-20.1-174.8l20.3-169.6c4.8-40.3-25.7-74.7-68.2-76.8
				c-40-2-76.8,25.7-84.5,63.5l-33.4,165.3c-0.6,2.9-1,5.8-1.2,8.7l-14.2,188.6l-41.8,39.8l-72.7-5.2L-3083,7886l-342.9-428.5
				C-3438.2,7442.3-3456.8,7432.8-3477.5,7431.2L-3477.5,7431.2z"/>
		</g>
	</g>
</g>
</svg>
