<?xml version="1.0" encoding="UTF-8" standalone="no"?>
<svg
   xmlns:dc="http://purl.org/dc/elements/1.1/"
   xmlns:cc="http://creativecommons.org/ns#"
   xmlns:rdf="http://www.w3.org/1999/02/22-rdf-syntax-ns#"
   xmlns:svg="http://www.w3.org/2000/svg"
   xmlns="http://www.w3.org/2000/svg"
   xmlns:sodipodi="http://sodipodi.sourceforge.net/DTD/sodipodi-0.dtd"
   xmlns:inkscape="http://www.inkscape.org/namespaces/inkscape"
   version="1.1"
   x="0px"
   y="0px"
   viewBox="0 0 65 81.25"
   enable-background="new 0 0 65 65"
   xml:space="preserve"
   id="svg34"
   sodipodi:docname="startup.svg"
   inkscape:version="0.92.1 r15371"><metadata
     id="metadata40"><rdf:RDF><cc:Work
         rdf:about=""><dc:format>image/svg+xml</dc:format><dc:type
           rdf:resource="http://purl.org/dc/dcmitype/StillImage" /></cc:Work></rdf:RDF></metadata><defs
     id="defs38" /><sodipodi:namedview
     pagecolor="#ffffff"
     bordercolor="#666666"
     borderopacity="1"
     objecttolerance="10"
     gridtolerance="10"
     guidetolerance="10"
     inkscape:pageopacity="0"
     inkscape:pageshadow="2"
     inkscape:window-width="1366"
     inkscape:window-height="705"
     id="namedview36"
     showgrid="false"
     inkscape:zoom="2.9046154"
     inkscape:cx="32.5"
     inkscape:cy="40.625"
     inkscape:window-x="-8"
     inkscape:window-y="-8"
     inkscape:window-maximized="1"
     inkscape:current-layer="svg34" /><g
     id="g28"
     style="fill:#fd817f;fill-opacity:1"><polygon
       points="10.7,54.4 13.5,54.4 13.5,62.4 15,62.4 15,52.9 14.3,52.9 16.9,50.4 19.5,52.9 16.8,52.9 16.8,54.4 19,54.4    19,57.4 20.5,57.4 20.5,54.4 23.1,54.4 16.9,48.3  "
       id="polygon2"
       style="fill:#fd817f;fill-opacity:1" /><rect
       x="19"
       y="58.9"
       width="1.5"
       height="1.5"
       id="rect4"
       style="fill:#fd817f;fill-opacity:1" /><rect
       x="7.4"
       y="60.3"
       width="1.5"
       height="1.5"
       id="rect6"
       style="fill:#fd817f;fill-opacity:1" /><rect
       x="7.4"
       y="57.3"
       width="1.5"
       height="1.5"
       id="rect8"
       style="fill:#fd817f;fill-opacity:1" /><polygon
       points="5.3,40.8 -0.9,47 1.9,47 1.9,64.9 3.4,64.9 3.4,45.5 2.7,45.5 5.3,42.9 7.9,45.5 5.2,45.5 5.2,47 7.4,47 7.4,55.7    8.9,55.7 8.9,47 11.5,47  "
       id="polygon10"
       style="fill:#fd817f;fill-opacity:1" /><path
       d="M48.2,0.1L43.1,11L38,0.1H4L10,13v23.8h19.1c0,0.2,0,0.4,0,0.6c0,1.9,0.1,3.8,0.4,5.6c-2.5,1.2-4.8,4.3-4.6,7.6   c0.1,1.6,0.6,3.2,1.3,4.4l1.2,2.1l0.2-2.4c0.1-2.1,1.9-3.9,3.5-4.8c0.2,0.6,0.5,1.3,0.7,1.9l0.2,0.4h4l0.4,3.2h4.9l0.4-3.2h4   l0.2-0.4c0.3-0.6,0.5-1.2,0.7-1.8c1.5,0.9,3.3,2.7,3.4,4.8l0.2,2.4l1.2-2.1c0.8-1.3,1.2-2.8,1.3-4.4c0.2-3.3-2.1-6.4-4.6-7.6   c0.2-1.8,0.4-3.7,0.4-5.7c0-0.2,0-0.4,0-0.6h11.6V13l6-12.9H48.2z M6.4,1.6h30.7l4.9,10.4H11.3L6.4,1.6z M29.2,35.3H11.5V13.6h30.9   v7.1c-1.6-2.3-3-3.7-3.1-3.8l-0.5-0.5l-0.5,0.5C37.8,17.1,30.1,25,29.2,35.3z M26.6,52.4c-0.2-0.6-0.3-1.2-0.3-1.9   c-0.2-2.6,1.6-4.9,3.3-6c0.2,1.4,0.5,2.7,0.9,3.9C29.1,49.2,27.5,50.6,26.6,52.4z M40.6,46.9L39.8,54h-2.2l-0.8-7.1   c0-0.4,0.1-0.8,0.4-1.1c0.3-0.3,0.7-0.5,1.1-0.5h1c0.4,0,0.8,0.2,1.1,0.5C40.6,46,40.7,46.4,40.6,46.9z M44.5,50.8h-2.8l0.4-3.7   c0.1-0.8-0.2-1.7-0.7-2.3c-0.6-0.6-1.4-1-2.2-1h-1c-0.8,0-1.6,0.4-2.2,1c-0.6,0.6-0.8,1.5-0.7,2.3l0.4,3.7h-2.8   c-1.5-3.6-2.3-8.4-2.3-13.4c0-9.1,6.3-16.8,8.1-19c1.9,2.1,8.1,9.9,8.1,19C46.8,42.4,46,47.1,44.5,50.8z M51.1,50.6   c0,0.7-0.2,1.3-0.3,1.9c-0.9-1.8-2.5-3.2-3.9-3.9c0.4-1.2,0.6-2.5,0.9-3.9C49.5,45.7,51.2,47.9,51.1,50.6z M58.4,35.3H48.3   c-0.5-4.8-2.4-9.2-4.4-12.4v-9.3h14.5V35.3z M58.7,12.1H44.3l4.9-10.4h14.4L58.7,12.1z"
       id="path12"
       style="fill:#fd817f;fill-opacity:1" /><rect
       x="21.6"
       y="31.3"
       width="1.5"
       height="1.5"
       id="rect14"
       style="fill:#fd817f;fill-opacity:1" /><rect
       x="18.1"
       y="31.3"
       width="1.5"
       height="1.5"
       id="rect16"
       style="fill:#fd817f;fill-opacity:1" /><rect
       x="14.6"
       y="31.3"
       width="1.5"
       height="1.5"
       id="rect18"
       style="fill:#fd817f;fill-opacity:1" /><path
       d="M34.6,32.9c0,2.3,1.8,4.1,4.1,4.1s4.1-1.8,4.1-4.1s-1.8-4.1-4.1-4.1S34.6,30.7,34.6,32.9z M38.7,30.3   c1.4,0,2.6,1.2,2.6,2.6c0,1.4-1.2,2.6-2.6,2.6c-1.4,0-2.6-1.2-2.6-2.6C36.1,31.5,37.3,30.3,38.7,30.3z"
       id="path20"
       style="fill:#fd817f;fill-opacity:1" /><rect
       x="33.3"
       y="56.7"
       width="1.5"
       height="4.1"
       id="rect22"
       style="fill:#fd817f;fill-opacity:1" /><rect
       x="38"
       y="59.5"
       width="1.5"
       height="5.4"
       id="rect24"
       style="fill:#fd817f;fill-opacity:1" /><rect
       x="42.6"
       y="56.7"
       width="1.5"
       height="4.1"
       id="rect26"
       style="fill:#fd817f;fill-opacity:1" /></g></svg>