<?xml version="1.0" encoding="UTF-8" standalone="no"?>
<svg
   xmlns:dc="http://purl.org/dc/elements/1.1/"
   xmlns:cc="http://creativecommons.org/ns#"
   xmlns:rdf="http://www.w3.org/1999/02/22-rdf-syntax-ns#"
   xmlns:svg="http://www.w3.org/2000/svg"
   xmlns="http://www.w3.org/2000/svg"
   xmlns:sodipodi="http://sodipodi.sourceforge.net/DTD/sodipodi-0.dtd"
   xmlns:inkscape="http://www.inkscape.org/namespaces/inkscape"
   version="1.1"
   x="0px"
   y="0px"
   viewBox="0 0 65 81.25"
   enable-background="new 0 0 65 65"
   xml:space="preserve"
   id="svg40"
   sodipodi:docname="target.svg"
   inkscape:version="0.92.1 r15371"><metadata
     id="metadata46"><rdf:RDF><cc:Work
         rdf:about=""><dc:format>image/svg+xml</dc:format><dc:type
           rdf:resource="http://purl.org/dc/dcmitype/StillImage" /></cc:Work></rdf:RDF></metadata><defs
     id="defs44" /><sodipodi:namedview
     pagecolor="#ffffff"
     bordercolor="#666666"
     borderopacity="1"
     objecttolerance="10"
     gridtolerance="10"
     guidetolerance="10"
     inkscape:pageopacity="0"
     inkscape:pageshadow="2"
     inkscape:window-width="1366"
     inkscape:window-height="705"
     id="namedview42"
     showgrid="false"
     inkscape:zoom="2.9046154"
     inkscape:cx="-82.833686"
     inkscape:cy="40.625"
     inkscape:window-x="-8"
     inkscape:window-y="-8"
     inkscape:window-maximized="1"
     inkscape:current-layer="svg40" /><g
     id="g34"
     style="fill:#fe7e7e;fill-opacity:1"><rect
       x="38.4"
       y="13"
       width="1.5"
       height="14.9"
       id="rect2"
       style="fill:#fe7e7e;fill-opacity:1" /><rect
       x="38.4"
       y="50.3"
       width="1.5"
       height="14.9"
       id="rect4"
       style="fill:#fe7e7e;fill-opacity:1" /><rect
       x="13"
       y="38.4"
       width="14.9"
       height="1.5"
       id="rect6"
       style="fill:#fe7e7e;fill-opacity:1" /><rect
       x="50.3"
       y="38.4"
       width="14.9"
       height="1.5"
       id="rect8"
       style="fill:#fe7e7e;fill-opacity:1" /><path
       d="M36.3,18.2l-0.2-1.5c-4.1,0.5-8,2.2-11.3,4.9l0.9,1.2C28.8,20.3,32.5,18.7,36.3,18.2z"
       id="path10"
       style="fill:#fe7e7e;fill-opacity:1" /><path
       d="M18.2,36.3c0.5-3.8,2.1-7.4,4.5-10.5l-1.2-0.9c-2.6,3.2-4.3,7.1-4.9,11.2L18.2,36.3z"
       id="path12"
       style="fill:#fe7e7e;fill-opacity:1" /><path
       d="M60,36.3l1.5-0.2c-1.4-10.1-9.3-18-19.4-19.3l-0.2,1.5C51.3,19.5,58.7,26.9,60,36.3z"
       id="path14"
       style="fill:#fe7e7e;fill-opacity:1" /><path
       d="M18.2,41.8L16.7,42C18,52.1,26,60.2,36.1,61.5l0.2-1.5C26.9,58.8,19.4,51.3,18.2,41.8z"
       id="path16"
       style="fill:#fe7e7e;fill-opacity:1" /><path
       d="M41.9,60l0.2,1.5c10.1-1.3,18.1-9.3,19.4-19.5L60,41.8C58.8,51.3,51.3,58.8,41.9,60z"
       id="path18"
       style="fill:#fe7e7e;fill-opacity:1" /><path
       d="M30.6,27.7c1.9-1.4,4.2-2.4,6.6-2.7L37,23.5c-2.6,0.3-5.2,1.4-7.3,3L30.6,27.7z"
       id="path20"
       style="fill:#fe7e7e;fill-opacity:1" /><path
       d="M25,37.2c0.3-2.4,1.2-4.6,2.6-6.5l-1.2-0.9c-1.6,2.1-2.6,4.6-2.9,7.2L25,37.2z"
       id="path22"
       style="fill:#fe7e7e;fill-opacity:1" /><path
       d="M53.2,37.2l1.5-0.2c-0.9-7-6.5-12.6-13.5-13.5L41,25C47.3,25.8,52.4,30.8,53.2,37.2z"
       id="path24"
       style="fill:#fe7e7e;fill-opacity:1" /><path
       d="M25,40.9l-1.5,0.2C24.4,48.2,30,53.8,37,54.7l0.2-1.5C30.8,52.4,25.8,47.3,25,40.9z"
       id="path26"
       style="fill:#fe7e7e;fill-opacity:1" /><path
       d="M54.7,41.1l-1.5-0.2c-0.8,6.4-5.9,11.4-12.2,12.3l0.2,1.5C48.2,53.8,53.8,48.2,54.7,41.1z"
       id="path28"
       style="fill:#fe7e7e;fill-opacity:1" /><path
       d="M38.6,39.6l1.1-1.1L17.6,16.5l1.2-6.1L8.1-0.3L6.7,6.7l-6.9,1.4l10.7,10.7l6.1-1.2L38.6,39.6z M10.9,17.2L2.8,9L8,8l1-5.2   l8.2,8.2l-1,5.2L10.9,17.2z"
       id="path30"
       style="fill:#fe7e7e;fill-opacity:1" /><path
       d="M33.4,37.1c-0.2,0.6-0.4,1.3-0.4,2c0,3.3,2.7,6,6,6c3.3,0,6-2.7,6-6c0-3.3-2.7-6-6-6c-0.7,0-1.4,0.1-2,0.4l0.5,1.4   c0.5-0.2,1-0.3,1.5-0.3c2.5,0,4.5,2,4.5,4.5c0,2.5-2,4.5-4.5,4.5c-2.5,0-4.5-2-4.5-4.5c0-0.5,0.1-1,0.3-1.5L33.4,37.1z"
       id="path32"
       style="fill:#fe7e7e;fill-opacity:1" /></g></svg>